<svg xmlns="http://www.w3.org/2000/svg" xmlns:xlink="http://www.w3.org/1999/xlink" width="82" height="82" viewBox="0 0 82 82"><defs><filter id="a" x="0" y="0" width="82" height="82" filterUnits="userSpaceOnUse"><feOffset dy="3" input="SourceAlpha"/><feGaussianBlur stdDeviation="3" result="b"/><feFlood flood-color="#b4b4b4" flood-opacity="0.471"/><feComposite operator="in" in2="b"/><feComposite in="SourceGraphic"/></filter></defs><g transform="translate(-554 -4722)"><g transform="matrix(1, 0, 0, 1, 554, 4722)" filter="url(#a)"><g transform="translate(9 6)" fill="#025b5f" stroke="#e4e4e6" stroke-width="1"><rect width="64" height="64" rx="8" stroke="none"/><rect x="0.5" y="0.5" width="63" height="63" rx="7.5" fill="none"/></g></g><g transform="translate(568.5 4733.5)"><rect width="53" height="53" rx="8" transform="translate(0.5 0.5)" fill="none"/><g transform="translate(10.5 10.5)"><rect width="32" height="32" fill="none"/><path d="M10.938,12.5a6.25,6.25,0,1,0-6.25-6.25A6.25,6.25,0,0,0,10.938,12.5Zm4.375,1.562H14.5a8.5,8.5,0,0,1-7.119,0H6.562A6.564,6.564,0,0,0,0,20.625v2.031A2.344,2.344,0,0,0,2.344,25H19.531a2.344,2.344,0,0,0,2.344-2.344V20.625A6.564,6.564,0,0,0,15.313,14.062Z" transform="translate(5 3.5)" fill="#fff"/></g></g></g></svg>