<svg width="14" height="14" viewBox="0 0 14 14" fill="none" xmlns="http://www.w3.org/2000/svg">
<path d="M6.25008 7C6.25008 7.19891 6.3291 7.38968 6.46975 7.53033C6.6104 7.67098 6.80117 7.75 7.00008 7.75C7.19899 7.75 7.38976 7.67098 7.53041 7.53033C7.67106 7.38968 7.75008 7.19891 7.75008 7C7.75008 6.80109 7.67106 6.61032 7.53041 6.46967C7.38976 6.32902 7.19899 6.25 7.00008 6.25C6.80117 6.25 6.6104 6.32902 6.46975 6.46967C6.3291 6.61032 6.25008 6.80109 6.25008 7ZM9.37508 7C9.37508 7.19891 9.4541 7.38968 9.59475 7.53033C9.7354 7.67098 9.92617 7.75 10.1251 7.75C10.324 7.75 10.5148 7.67098 10.6554 7.53033C10.7961 7.38968 10.8751 7.19891 10.8751 7C10.8751 6.80109 10.7961 6.61032 10.6554 6.46967C10.5148 6.32902 10.324 6.25 10.1251 6.25C9.92617 6.25 9.7354 6.32902 9.59475 6.46967C9.4541 6.61032 9.37508 6.80109 9.37508 7ZM3.12508 7C3.12508 7.19891 3.2041 7.38968 3.34475 7.53033C3.4854 7.67098 3.67617 7.75 3.87508 7.75C4.07399 7.75 4.26476 7.67098 4.40541 7.53033C4.54606 7.38968 4.62508 7.19891 4.62508 7C4.62508 6.80109 4.54606 6.61032 4.40541 6.46967C4.26476 6.32902 4.07399 6.25 3.87508 6.25C3.67617 6.25 3.4854 6.32902 3.34475 6.46967C3.2041 6.61032 3.12508 6.80109 3.12508 7ZM13.4563 4.2875C13.1032 3.44844 12.597 2.69531 11.9516 2.04844C11.3108 1.40531 10.5501 0.894096 9.71258 0.54375C8.85321 0.182813 7.94071 0 7.00008 0H6.96883C6.02196 0.0046875 5.10477 0.192188 4.24227 0.560938C3.41189 0.914877 2.65831 1.427 2.02352 2.06875C1.38446 2.71406 0.882894 3.46406 0.536019 4.3C0.176644 5.16563 -0.00460649 6.08594 8.10155e-05 7.03281C0.00538297 8.11792 0.2621 9.18704 0.750081 10.1562V12.5312C0.750081 12.7219 0.825806 12.9047 0.960598 13.0395C1.09539 13.1743 1.27821 13.25 1.46883 13.25H3.84539C4.8146 13.738 5.88372 13.9947 6.96883 14H7.00164C7.93758 14 8.84539 13.8188 9.70008 13.4641C10.5334 13.1179 11.2913 12.6126 11.9313 11.9766C12.5766 11.3375 13.0845 10.5906 13.4391 9.75781C13.8079 8.89531 13.9954 7.97813 14.0001 7.03125C14.0048 6.07969 13.8204 5.15625 13.4563 4.2875ZM11.0954 11.1313C10.0001 12.2156 8.54696 12.8125 7.00008 12.8125H6.97352C6.03133 12.8078 5.09539 12.5734 4.26883 12.1328L4.13758 12.0625H1.93758V9.8625L1.86727 9.73125C1.42664 8.90469 1.19227 7.96875 1.18758 7.02656C1.18133 5.46875 1.77664 4.00625 2.86883 2.90469C3.95946 1.80312 5.41727 1.19375 6.97508 1.1875H7.00164C7.78289 1.1875 8.54071 1.33906 9.25477 1.63906C9.95164 1.93125 10.5766 2.35156 11.1141 2.88906C11.6501 3.425 12.072 4.05156 12.3641 4.74844C12.6673 5.47031 12.8188 6.23594 12.8157 7.02656C12.8063 8.58281 12.1954 10.0406 11.0954 11.1313Z" fill="black" fill-opacity="0.25"/>
</svg>
