<svg width="24" height="24" viewBox="0 0 24 24" fill="none" xmlns="http://www.w3.org/2000/svg">
<path d="M14.6886 10.755C14.1501 10.5477 13.6848 10.4046 13.2743 10.2784C12.4669 10.0302 12.0953 9.90653 11.7467 9.57688C11.5063 9.34964 11.5016 9.05874 11.54 8.85475C11.5997 8.53833 11.8341 8.13249 12.3135 7.94293C13.4332 7.50013 14.7449 8.57076 14.9965 8.78989L17.2882 6.07434C16.8947 5.73169 16.0733 5.0942 14.9941 4.67454C14.8161 4.60527 14.6379 4.5453 14.46 4.49344V2H10.9385V4.652C9.44647 5.2796 8.38111 6.59093 8.0812 8.18245C7.79937 9.6787 8.27242 11.1786 9.34681 12.1947C10.3079 13.1034 11.2971 13.4076 12.254 13.7018C12.6278 13.8167 13.0143 13.9354 13.4398 14.0994C14.2225 14.4008 14.5725 14.9128 14.4522 15.5799C14.3303 16.2558 13.7297 16.9832 12.6992 16.9832C11.6912 16.9832 10.7995 16.3143 10.0492 14.9952L7 16.7845C8.01723 18.5726 9.37945 19.7699 10.9385 20.2799V23H14.46V20.2612C16.2186 19.647 17.5712 18.1356 17.9159 16.2247C18.3493 13.8241 17.0825 11.6772 14.6886 10.755Z" fill="white"/>
</svg>
