<svg xmlns="http://www.w3.org/2000/svg" xmlns:xlink="http://www.w3.org/1999/xlink" width="82" height="82" viewBox="0 0 82 82"><defs><filter id="a" x="0" y="0" width="82" height="82" filterUnits="userSpaceOnUse"><feOffset dy="3" input="SourceAlpha"/><feGaussianBlur stdDeviation="3" result="b"/><feFlood flood-color="#b4b4b4" flood-opacity="0.471"/><feComposite operator="in" in2="b"/><feComposite in="SourceGraphic"/></filter></defs><g transform="translate(-1107 -4797)"><g transform="matrix(1, 0, 0, 1, 1107, 4797)" filter="url(#a)"><g transform="translate(9 6)" fill="#fed57c" stroke="#e4e4e6" stroke-width="1"><rect width="64" height="64" rx="8" stroke="none"/><rect x="0.5" y="0.5" width="63" height="63" rx="7.5" fill="none"/></g></g><g transform="translate(1121.908 4808.908)"><rect width="52.185" height="52.185" rx="8" transform="translate(0 0)" fill="none"/><g transform="translate(8 9)"><rect width="35.185" height="35.185" fill="none"/><path d="M17.21,15.644c-3.2-.832-4.232-1.693-4.232-3.033,0-1.538,1.425-2.61,3.809-2.61,2.511,0,3.442,1.2,3.526,2.962h3.117A5.623,5.623,0,0,0,18.9,7.589V4.5H14.671V7.547c-2.737.592-4.937,2.37-4.937,5.092,0,3.258,2.694,4.881,6.63,5.826,3.526.846,4.232,2.088,4.232,3.4,0,.973-.691,2.525-3.809,2.525-2.906,0-4.048-1.3-4.2-2.962H9.48c.169,3.089,2.483,4.824,5.191,5.4v3.061H18.9V26.858c2.751-.522,4.937-2.116,4.937-5.008C23.84,17.844,20.412,16.476,17.21,15.644Z" transform="translate(0.369 1.086)" fill="#fff"/></g></g></g></svg>