<svg width="395" height="130" viewBox="0 0 395 130" fill="none" xmlns="http://www.w3.org/2000/svg">
<path d="M197.603 99.4921C222.237 99.4921 242.207 95.7608 242.207 91.1579C242.207 86.5551 222.237 82.8237 197.603 82.8237C172.97 82.8237 153 86.5551 153 91.1579C153 95.7608 172.97 99.4921 197.603 99.4921Z" fill="#F5F5F7" fill-opacity="0.8"/>
<path fill-rule="evenodd" clip-rule="evenodd" d="M233.285 66.6734L217.545 47.3017C216.79 46.3899 215.686 45.8379 214.524 45.8379H180.682C179.52 45.8379 178.416 46.3899 177.66 47.3017L161.921 66.6734V76.7938H233.286V66.6734H233.285Z" fill="#AEB8C2"/>
<path fill-rule="evenodd" clip-rule="evenodd" d="M175.257 20.8354H219.949C220.647 20.8354 221.317 21.1127 221.81 21.6062C222.304 22.0997 222.581 22.7691 222.581 23.467V84.8775C222.581 85.5755 222.304 86.2448 221.81 86.7383C221.317 87.2319 220.647 87.5091 219.949 87.5091H175.257C174.559 87.5091 173.889 87.2319 173.396 86.7383C172.902 86.2448 172.625 85.5755 172.625 84.8775V23.467C172.625 22.7691 172.902 22.0997 173.396 21.6062C173.889 21.1127 174.559 20.8354 175.257 20.8354V20.8354Z" fill="#F5F5F7"/>
<path fill-rule="evenodd" clip-rule="evenodd" d="M181.078 27.3833H214.128C214.477 27.3833 214.812 27.5219 215.059 27.7687C215.305 28.0154 215.444 28.3501 215.444 28.6991V45.1182C215.444 45.4671 215.305 45.8018 215.059 46.0486C214.812 46.2953 214.477 46.434 214.128 46.434H181.078C180.729 46.434 180.394 46.2953 180.147 46.0486C179.9 45.8018 179.762 45.4671 179.762 45.1182V28.6991C179.762 28.3501 179.9 28.0154 180.147 27.7687C180.394 27.5219 180.729 27.3833 181.078 27.3833ZM181.25 53.5767H213.956C214.351 53.5767 214.729 53.7335 215.008 54.0126C215.287 54.2917 215.444 54.6702 215.444 55.0649C215.444 55.4596 215.287 55.8381 215.008 56.1172C214.729 56.3962 214.351 56.553 213.956 56.553H181.25C180.855 56.553 180.477 56.3962 180.198 56.1172C179.919 55.8381 179.762 55.4596 179.762 55.0649C179.762 54.6702 179.919 54.2917 180.198 54.0126C180.477 53.7335 180.855 53.5767 181.25 53.5767ZM181.25 61.3155H213.956C214.351 61.3155 214.729 61.4724 215.008 61.7515C215.288 62.0307 215.444 62.4093 215.444 62.804C215.444 63.1988 215.288 63.5774 215.008 63.8565C214.729 64.1357 214.351 64.2925 213.956 64.2925H181.25C180.855 64.2925 180.477 64.1357 180.197 63.8565C179.918 63.5774 179.762 63.1988 179.762 62.804C179.762 62.4093 179.918 62.0307 180.197 61.7515C180.477 61.4724 180.855 61.3155 181.25 61.3155ZM233.14 89.9353C232.63 91.9557 230.84 93.4616 228.709 93.4616H166.497C164.366 93.4616 162.576 91.955 162.066 89.9353C161.969 89.5503 161.92 89.1547 161.92 88.7576V66.6741H179.235C181.147 66.6741 182.689 68.2846 182.689 70.2399V70.2662C182.689 72.2208 184.248 73.7991 186.161 73.7991H209.045C210.958 73.7991 212.517 72.2063 212.517 70.2511V70.2432C212.517 68.2879 214.059 66.6734 215.971 66.6734H233.286V88.7583C233.286 89.1642 233.235 89.5583 233.14 89.9353Z" fill="#DCE0E6"/>
<path fill-rule="evenodd" clip-rule="evenodd" d="M235.316 21.9026L230.823 23.6461C230.708 23.6909 230.582 23.7023 230.46 23.6789C230.339 23.6555 230.226 23.5982 230.135 23.5137C230.045 23.4292 229.98 23.3208 229.949 23.2011C229.917 23.0813 229.92 22.9551 229.957 22.8368L231.231 18.7533C229.528 16.8164 228.528 14.4546 228.528 11.9059C228.528 5.33026 235.184 0 243.396 0C251.606 0 258.263 5.33026 258.263 11.9059C258.263 18.4816 251.607 23.8118 243.395 23.8118C240.416 23.8118 237.643 23.1105 235.316 21.9026Z" fill="#DCE0E6"/>
<path d="M249.253 14.056C250.288 14.056 251.127 13.2268 251.127 12.204C251.127 11.1812 250.288 10.3521 249.253 10.3521C248.217 10.3521 247.378 11.1812 247.378 12.204C247.378 13.2268 248.217 14.056 249.253 14.056Z" fill="white"/>
<path fill-rule="evenodd" clip-rule="evenodd" d="M239.413 13.8243H235.664L237.571 10.5835L239.413 13.8243ZM241.756 10.5835H245.035V13.8243H241.756V10.5835Z" fill="white"/>
<path d="M138.574 120.835H139.887C139.818 121.464 139.638 122.027 139.347 122.523C139.055 123.02 138.643 123.414 138.109 123.706C137.576 123.993 136.911 124.137 136.113 124.137C135.53 124.137 134.999 124.027 134.521 123.809C134.047 123.59 133.639 123.28 133.297 122.879C132.955 122.473 132.691 121.988 132.504 121.423C132.322 120.853 132.23 120.22 132.23 119.522V118.531C132.23 117.834 132.322 117.203 132.504 116.638C132.691 116.068 132.957 115.58 133.304 115.175C133.655 114.769 134.076 114.457 134.568 114.238C135.061 114.02 135.614 113.91 136.229 113.91C136.981 113.91 137.617 114.051 138.137 114.334C138.656 114.617 139.06 115.008 139.347 115.51C139.638 116.007 139.818 116.583 139.887 117.239H138.574C138.51 116.774 138.392 116.376 138.219 116.043C138.046 115.706 137.799 115.446 137.48 115.264C137.161 115.081 136.744 114.99 136.229 114.99C135.787 114.99 135.398 115.075 135.061 115.243C134.728 115.412 134.448 115.651 134.22 115.961C133.996 116.271 133.828 116.642 133.714 117.075C133.6 117.508 133.543 117.989 133.543 118.518V119.522C133.543 120.01 133.593 120.468 133.693 120.896C133.798 121.325 133.955 121.701 134.165 122.024C134.375 122.348 134.641 122.603 134.965 122.79C135.288 122.972 135.671 123.063 136.113 123.063C136.674 123.063 137.12 122.975 137.453 122.797C137.786 122.619 138.036 122.364 138.205 122.031C138.378 121.699 138.501 121.3 138.574 120.835ZM142.758 113.5V124H141.493V113.5H142.758ZM142.457 120.021L141.931 120.001C141.935 119.495 142.01 119.028 142.156 118.6C142.302 118.167 142.507 117.791 142.771 117.472C143.036 117.153 143.35 116.907 143.715 116.733C144.084 116.556 144.492 116.467 144.938 116.467C145.303 116.467 145.631 116.517 145.923 116.617C146.215 116.713 146.463 116.868 146.668 117.082C146.878 117.296 147.037 117.574 147.146 117.916C147.256 118.253 147.311 118.666 147.311 119.153V124H146.039V119.14C146.039 118.752 145.982 118.442 145.868 118.21C145.754 117.973 145.588 117.802 145.369 117.697C145.15 117.588 144.882 117.533 144.562 117.533C144.248 117.533 143.961 117.599 143.701 117.731C143.446 117.864 143.225 118.046 143.038 118.278C142.856 118.511 142.712 118.777 142.607 119.078C142.507 119.374 142.457 119.689 142.457 120.021ZM156.129 116.009H157.1C157.1 116.506 157.034 116.923 156.901 117.26C156.774 117.597 156.548 117.85 156.225 118.019C155.901 118.187 155.445 118.271 154.857 118.271V117.492C155.268 117.492 155.562 117.442 155.739 117.342C155.917 117.237 156.026 117.075 156.067 116.856C156.108 116.638 156.129 116.355 156.129 116.009ZM153.729 122.291V116.604H155.001V124H153.791L153.729 122.291ZM153.969 120.732L154.495 120.719C154.495 121.211 154.443 121.667 154.338 122.086C154.238 122.501 154.074 122.861 153.846 123.166C153.618 123.471 153.319 123.711 152.95 123.884C152.581 124.052 152.132 124.137 151.604 124.137C151.243 124.137 150.913 124.084 150.612 123.979C150.316 123.875 150.061 123.713 149.847 123.494C149.632 123.275 149.466 122.991 149.348 122.64C149.234 122.289 149.177 121.867 149.177 121.375V116.604H150.441V121.389C150.441 121.721 150.478 121.997 150.551 122.216C150.628 122.43 150.731 122.601 150.858 122.729C150.991 122.852 151.136 122.938 151.296 122.988C151.46 123.038 151.629 123.063 151.802 123.063C152.34 123.063 152.766 122.961 153.08 122.756C153.395 122.546 153.62 122.266 153.757 121.915C153.898 121.56 153.969 121.165 153.969 120.732ZM162.233 122.735V118.928C162.233 118.636 162.174 118.383 162.056 118.169C161.942 117.95 161.769 117.782 161.536 117.663C161.304 117.545 161.017 117.485 160.675 117.485C160.356 117.485 160.076 117.54 159.834 117.649C159.597 117.759 159.41 117.902 159.273 118.08C159.141 118.258 159.075 118.449 159.075 118.654H157.811C157.811 118.39 157.879 118.128 158.016 117.868C158.152 117.608 158.348 117.374 158.604 117.164C158.863 116.95 159.173 116.781 159.533 116.658C159.898 116.531 160.303 116.467 160.75 116.467C161.288 116.467 161.762 116.558 162.172 116.74C162.587 116.923 162.91 117.198 163.143 117.567C163.38 117.932 163.498 118.39 163.498 118.941V122.387C163.498 122.633 163.519 122.895 163.56 123.173C163.605 123.451 163.671 123.69 163.758 123.891V124H162.438C162.375 123.854 162.325 123.66 162.288 123.419C162.252 123.173 162.233 122.945 162.233 122.735ZM162.452 119.516L162.466 120.404H161.188C160.827 120.404 160.506 120.434 160.224 120.493C159.941 120.548 159.704 120.632 159.513 120.746C159.321 120.86 159.175 121.004 159.075 121.177C158.975 121.345 158.925 121.544 158.925 121.771C158.925 122.004 158.977 122.216 159.082 122.407C159.187 122.599 159.344 122.751 159.554 122.865C159.768 122.975 160.03 123.029 160.34 123.029C160.727 123.029 161.069 122.947 161.365 122.783C161.661 122.619 161.896 122.419 162.069 122.182C162.247 121.945 162.343 121.715 162.356 121.491L162.896 122.1C162.865 122.291 162.778 122.503 162.637 122.735C162.495 122.968 162.306 123.191 162.069 123.405C161.837 123.615 161.559 123.79 161.235 123.932C160.916 124.068 160.556 124.137 160.155 124.137C159.654 124.137 159.214 124.039 158.836 123.843C158.462 123.647 158.171 123.385 157.961 123.057C157.756 122.724 157.653 122.353 157.653 121.942C157.653 121.546 157.731 121.197 157.886 120.896C158.041 120.591 158.264 120.338 158.556 120.138C158.847 119.933 159.198 119.778 159.608 119.673C160.019 119.568 160.477 119.516 160.982 119.516H162.452ZM171.92 123.098C172.221 123.098 172.499 123.036 172.754 122.913C173.009 122.79 173.219 122.621 173.383 122.407C173.547 122.188 173.64 121.94 173.663 121.662H174.866C174.843 122.1 174.695 122.507 174.422 122.886C174.153 123.259 173.8 123.562 173.362 123.795C172.925 124.023 172.444 124.137 171.92 124.137C171.364 124.137 170.879 124.039 170.464 123.843C170.054 123.647 169.712 123.378 169.438 123.036C169.17 122.694 168.967 122.302 168.83 121.86C168.698 121.414 168.632 120.942 168.632 120.445V120.158C168.632 119.661 168.698 119.192 168.83 118.75C168.967 118.303 169.17 117.909 169.438 117.567C169.712 117.226 170.054 116.957 170.464 116.761C170.879 116.565 171.364 116.467 171.92 116.467C172.499 116.467 173.005 116.585 173.438 116.822C173.87 117.055 174.21 117.374 174.456 117.779C174.707 118.18 174.843 118.636 174.866 119.146H173.663C173.64 118.841 173.554 118.565 173.403 118.319C173.257 118.073 173.057 117.877 172.802 117.731C172.551 117.581 172.257 117.506 171.92 117.506C171.533 117.506 171.207 117.583 170.942 117.738C170.683 117.889 170.475 118.094 170.32 118.354C170.17 118.609 170.061 118.894 169.992 119.208C169.928 119.518 169.896 119.835 169.896 120.158V120.445C169.896 120.769 169.928 121.088 169.992 121.402C170.056 121.717 170.163 122.002 170.313 122.257C170.468 122.512 170.676 122.717 170.936 122.872C171.2 123.022 171.528 123.098 171.92 123.098ZM175.953 120.384V120.227C175.953 119.693 176.031 119.199 176.186 118.743C176.34 118.283 176.564 117.884 176.855 117.547C177.147 117.205 177.5 116.941 177.915 116.754C178.33 116.562 178.795 116.467 179.31 116.467C179.829 116.467 180.296 116.562 180.711 116.754C181.13 116.941 181.486 117.205 181.777 117.547C182.074 117.884 182.299 118.283 182.454 118.743C182.609 119.199 182.687 119.693 182.687 120.227V120.384C182.687 120.917 182.609 121.411 182.454 121.867C182.299 122.323 182.074 122.722 181.777 123.063C181.486 123.401 181.132 123.665 180.718 123.856C180.308 124.043 179.843 124.137 179.323 124.137C178.804 124.137 178.337 124.043 177.922 123.856C177.507 123.665 177.152 123.401 176.855 123.063C176.564 122.722 176.34 122.323 176.186 121.867C176.031 121.411 175.953 120.917 175.953 120.384ZM177.218 120.227V120.384C177.218 120.753 177.261 121.102 177.348 121.43C177.434 121.753 177.564 122.04 177.737 122.291C177.915 122.542 178.136 122.74 178.4 122.886C178.665 123.027 178.972 123.098 179.323 123.098C179.67 123.098 179.973 123.027 180.232 122.886C180.497 122.74 180.715 122.542 180.889 122.291C181.062 122.04 181.192 121.753 181.278 121.43C181.369 121.102 181.415 120.753 181.415 120.384V120.227C181.415 119.862 181.369 119.518 181.278 119.194C181.192 118.866 181.06 118.577 180.882 118.326C180.709 118.071 180.49 117.87 180.226 117.725C179.966 117.579 179.66 117.506 179.31 117.506C178.963 117.506 178.658 117.579 178.394 117.725C178.134 117.87 177.915 118.071 177.737 118.326C177.564 118.577 177.434 118.866 177.348 119.194C177.261 119.518 177.218 119.862 177.218 120.227ZM178.558 115.51L179.884 113.5H181.408L179.576 115.51H178.558ZM190.842 116.604V117.574H186.843V116.604H190.842ZM188.196 114.806H189.461V122.168C189.461 122.419 189.5 122.608 189.577 122.735C189.655 122.863 189.755 122.947 189.878 122.988C190.001 123.029 190.133 123.05 190.274 123.05C190.379 123.05 190.489 123.041 190.603 123.022C190.721 123 190.81 122.981 190.869 122.968L190.876 124C190.776 124.032 190.644 124.062 190.479 124.089C190.32 124.121 190.126 124.137 189.898 124.137C189.589 124.137 189.304 124.075 189.044 123.952C188.784 123.829 188.577 123.624 188.422 123.337C188.271 123.045 188.196 122.653 188.196 122.161V114.806ZM193.699 116.604V124H192.428V116.604H193.699ZM192.332 114.642C192.332 114.437 192.394 114.263 192.517 114.122C192.644 113.981 192.831 113.91 193.077 113.91C193.319 113.91 193.503 113.981 193.631 114.122C193.763 114.263 193.829 114.437 193.829 114.642C193.829 114.838 193.763 115.006 193.631 115.147C193.503 115.284 193.319 115.353 193.077 115.353C192.831 115.353 192.644 115.284 192.517 115.147C192.394 115.006 192.332 114.838 192.332 114.642ZM196.994 118.183V124H195.729V116.604H196.926L196.994 118.183ZM196.693 120.021L196.167 120.001C196.172 119.495 196.247 119.028 196.393 118.6C196.538 118.167 196.743 117.791 197.008 117.472C197.272 117.153 197.587 116.907 197.951 116.733C198.32 116.556 198.728 116.467 199.175 116.467C199.539 116.467 199.868 116.517 200.159 116.617C200.451 116.713 200.699 116.868 200.904 117.082C201.114 117.296 201.273 117.574 201.383 117.916C201.492 118.253 201.547 118.666 201.547 119.153V124H200.275V119.14C200.275 118.752 200.218 118.442 200.104 118.21C199.991 117.973 199.824 117.802 199.605 117.697C199.387 117.588 199.118 117.533 198.799 117.533C198.484 117.533 198.197 117.599 197.938 117.731C197.682 117.864 197.461 118.046 197.274 118.278C197.092 118.511 196.949 118.777 196.844 119.078C196.743 119.374 196.693 119.689 196.693 120.021ZM208.205 118.183V124H206.94V116.604H208.137L208.205 118.183ZM207.904 120.021L207.378 120.001C207.382 119.495 207.458 119.028 207.604 118.6C207.749 118.167 207.954 117.791 208.219 117.472C208.483 117.153 208.798 116.907 209.162 116.733C209.531 116.556 209.939 116.467 210.386 116.467C210.75 116.467 211.078 116.517 211.37 116.617C211.662 116.713 211.91 116.868 212.115 117.082C212.325 117.296 212.484 117.574 212.594 117.916C212.703 118.253 212.758 118.666 212.758 119.153V124H211.486V119.14C211.486 118.752 211.429 118.442 211.315 118.21C211.201 117.973 211.035 117.802 210.816 117.697C210.598 117.588 210.329 117.533 210.01 117.533C209.695 117.533 209.408 117.599 209.148 117.731C208.893 117.864 208.672 118.046 208.485 118.278C208.303 118.511 208.16 118.777 208.055 119.078C207.954 119.374 207.904 119.689 207.904 120.021ZM215.943 113.5V124H214.679V113.5H215.943ZM215.643 120.021L215.116 120.001C215.121 119.495 215.196 119.028 215.342 118.6C215.488 118.167 215.693 117.791 215.957 117.472C216.221 117.153 216.536 116.907 216.9 116.733C217.27 116.556 217.677 116.467 218.124 116.467C218.489 116.467 218.817 116.517 219.108 116.617C219.4 116.713 219.648 116.868 219.854 117.082C220.063 117.296 220.223 117.574 220.332 117.916C220.441 118.253 220.496 118.666 220.496 119.153V124H219.225V119.14C219.225 118.752 219.168 118.442 219.054 118.21C218.94 117.973 218.773 117.802 218.555 117.697C218.336 117.588 218.067 117.533 217.748 117.533C217.434 117.533 217.146 117.599 216.887 117.731C216.632 117.864 216.41 118.046 216.224 118.278C216.041 118.511 215.898 118.777 215.793 119.078C215.693 119.374 215.643 119.689 215.643 120.021ZM226.751 122.735V118.928C226.751 118.636 226.692 118.383 226.573 118.169C226.459 117.95 226.286 117.782 226.054 117.663C225.821 117.545 225.534 117.485 225.192 117.485C224.873 117.485 224.593 117.54 224.352 117.649C224.115 117.759 223.928 117.902 223.791 118.08C223.659 118.258 223.593 118.449 223.593 118.654H222.328C222.328 118.39 222.396 118.128 222.533 117.868C222.67 117.608 222.866 117.374 223.121 117.164C223.381 116.95 223.691 116.781 224.051 116.658C224.415 116.531 224.821 116.467 225.268 116.467C225.805 116.467 226.279 116.558 226.689 116.74C227.104 116.923 227.428 117.198 227.66 117.567C227.897 117.932 228.016 118.39 228.016 118.941V122.387C228.016 122.633 228.036 122.895 228.077 123.173C228.123 123.451 228.189 123.69 228.275 123.891V124H226.956C226.892 123.854 226.842 123.66 226.806 123.419C226.769 123.173 226.751 122.945 226.751 122.735ZM226.97 119.516L226.983 120.404H225.705C225.345 120.404 225.024 120.434 224.741 120.493C224.459 120.548 224.222 120.632 224.03 120.746C223.839 120.86 223.693 121.004 223.593 121.177C223.493 121.345 223.442 121.544 223.442 121.771C223.442 122.004 223.495 122.216 223.6 122.407C223.704 122.599 223.862 122.751 224.071 122.865C224.285 122.975 224.548 123.029 224.857 123.029C225.245 123.029 225.587 122.947 225.883 122.783C226.179 122.619 226.414 122.419 226.587 122.182C226.765 121.945 226.86 121.715 226.874 121.491L227.414 122.1C227.382 122.291 227.296 122.503 227.154 122.735C227.013 122.968 226.824 123.191 226.587 123.405C226.354 123.615 226.076 123.79 225.753 123.932C225.434 124.068 225.074 124.137 224.673 124.137C224.172 124.137 223.732 124.039 223.354 123.843C222.98 123.647 222.688 123.385 222.479 123.057C222.273 122.724 222.171 122.353 222.171 121.942C222.171 121.546 222.248 121.197 222.403 120.896C222.558 120.591 222.782 120.338 223.073 120.138C223.365 119.933 223.716 119.778 224.126 119.673C224.536 119.568 224.994 119.516 225.5 119.516H226.97ZM226.396 114.115H227.441C227.441 114.393 227.357 114.639 227.188 114.854C227.024 115.068 226.787 115.236 226.478 115.359C226.168 115.482 225.801 115.544 225.377 115.544C224.949 115.544 224.579 115.482 224.27 115.359C223.96 115.236 223.72 115.068 223.552 114.854C223.383 114.639 223.299 114.393 223.299 114.115H224.338C224.338 114.325 224.415 114.509 224.57 114.669C224.725 114.824 224.994 114.901 225.377 114.901C225.742 114.901 226.001 114.824 226.156 114.669C226.316 114.509 226.396 114.325 226.396 114.115ZM224.974 113.979L225.746 112.618H226.792L225.671 113.979H224.974ZM231.27 118.183V124H230.005V116.604H231.201L231.27 118.183ZM230.969 120.021L230.442 120.001C230.447 119.495 230.522 119.028 230.668 118.6C230.814 118.167 231.019 117.791 231.283 117.472C231.548 117.153 231.862 116.907 232.227 116.733C232.596 116.556 233.004 116.467 233.45 116.467C233.815 116.467 234.143 116.517 234.435 116.617C234.726 116.713 234.975 116.868 235.18 117.082C235.389 117.296 235.549 117.574 235.658 117.916C235.768 118.253 235.822 118.666 235.822 119.153V124H234.551V119.14C234.551 118.752 234.494 118.442 234.38 118.21C234.266 117.973 234.1 117.802 233.881 117.697C233.662 117.588 233.393 117.533 233.074 117.533C232.76 117.533 232.473 117.599 232.213 117.731C231.958 117.864 231.737 118.046 231.55 118.278C231.368 118.511 231.224 118.777 231.119 119.078C231.019 119.374 230.969 119.689 230.969 120.021ZM242.48 118.183V124H241.216V116.604H242.412L242.48 118.183ZM242.18 120.021L241.653 120.001C241.658 119.495 241.733 119.028 241.879 118.6C242.025 118.167 242.23 117.791 242.494 117.472C242.758 117.153 243.073 116.907 243.438 116.733C243.807 116.556 244.215 116.467 244.661 116.467C245.026 116.467 245.354 116.517 245.646 116.617C245.937 116.713 246.186 116.868 246.391 117.082C246.6 117.296 246.76 117.574 246.869 117.916C246.979 118.253 247.033 118.666 247.033 119.153V124H245.762V119.14C245.762 118.752 245.705 118.442 245.591 118.21C245.477 117.973 245.311 117.802 245.092 117.697C244.873 117.588 244.604 117.533 244.285 117.533C243.971 117.533 243.684 117.599 243.424 117.731C243.169 117.864 242.948 118.046 242.761 118.278C242.578 118.511 242.435 118.777 242.33 119.078C242.23 119.374 242.18 119.689 242.18 120.021ZM253.315 122.735V118.928C253.315 118.636 253.256 118.383 253.138 118.169C253.024 117.95 252.851 117.782 252.618 117.663C252.386 117.545 252.099 117.485 251.757 117.485C251.438 117.485 251.158 117.54 250.916 117.649C250.679 117.759 250.492 117.902 250.355 118.08C250.223 118.258 250.157 118.449 250.157 118.654H248.893C248.893 118.39 248.961 118.128 249.098 117.868C249.234 117.608 249.43 117.374 249.686 117.164C249.945 116.95 250.255 116.781 250.615 116.658C250.98 116.531 251.385 116.467 251.832 116.467C252.37 116.467 252.844 116.558 253.254 116.74C253.669 116.923 253.992 117.198 254.225 117.567C254.462 117.932 254.58 118.39 254.58 118.941V122.387C254.58 122.633 254.601 122.895 254.642 123.173C254.687 123.451 254.753 123.69 254.84 123.891V124H253.521C253.457 123.854 253.407 123.66 253.37 123.419C253.334 123.173 253.315 122.945 253.315 122.735ZM253.534 119.516L253.548 120.404H252.27C251.91 120.404 251.588 120.434 251.306 120.493C251.023 120.548 250.786 120.632 250.595 120.746C250.403 120.86 250.257 121.004 250.157 121.177C250.057 121.345 250.007 121.544 250.007 121.771C250.007 122.004 250.059 122.216 250.164 122.407C250.269 122.599 250.426 122.751 250.636 122.865C250.85 122.975 251.112 123.029 251.422 123.029C251.809 123.029 252.151 122.947 252.447 122.783C252.743 122.619 252.978 122.419 253.151 122.182C253.329 121.945 253.425 121.715 253.438 121.491L253.979 122.1C253.947 122.291 253.86 122.503 253.719 122.735C253.577 122.968 253.388 123.191 253.151 123.405C252.919 123.615 252.641 123.79 252.317 123.932C251.998 124.068 251.638 124.137 251.237 124.137C250.736 124.137 250.296 124.039 249.918 123.843C249.544 123.647 249.253 123.385 249.043 123.057C248.838 122.724 248.735 122.353 248.735 121.942C248.735 121.546 248.813 121.197 248.968 120.896C249.123 120.591 249.346 120.338 249.638 120.138C249.929 119.933 250.28 119.778 250.69 119.673C251.101 119.568 251.559 119.516 252.064 119.516H253.534ZM251.367 113.5L252.687 115.51H251.6L249.836 113.5H251.367ZM256.234 120.384V120.227C256.234 119.693 256.312 119.199 256.467 118.743C256.622 118.283 256.845 117.884 257.137 117.547C257.428 117.205 257.782 116.941 258.196 116.754C258.611 116.562 259.076 116.467 259.591 116.467C260.11 116.467 260.577 116.562 260.992 116.754C261.411 116.941 261.767 117.205 262.059 117.547C262.355 117.884 262.58 118.283 262.735 118.743C262.89 119.199 262.968 119.693 262.968 120.227V120.384C262.968 120.917 262.89 121.411 262.735 121.867C262.58 122.323 262.355 122.722 262.059 123.063C261.767 123.401 261.414 123.665 260.999 123.856C260.589 124.043 260.124 124.137 259.604 124.137C259.085 124.137 258.618 124.043 258.203 123.856C257.788 123.665 257.433 123.401 257.137 123.063C256.845 122.722 256.622 122.323 256.467 121.867C256.312 121.411 256.234 120.917 256.234 120.384ZM257.499 120.227V120.384C257.499 120.753 257.542 121.102 257.629 121.43C257.715 121.753 257.845 122.04 258.019 122.291C258.196 122.542 258.417 122.74 258.682 122.886C258.946 123.027 259.254 123.098 259.604 123.098C259.951 123.098 260.254 123.027 260.514 122.886C260.778 122.74 260.997 122.542 261.17 122.291C261.343 122.04 261.473 121.753 261.56 121.43C261.651 121.102 261.696 120.753 261.696 120.384V120.227C261.696 119.862 261.651 119.518 261.56 119.194C261.473 118.866 261.341 118.577 261.163 118.326C260.99 118.071 260.771 117.87 260.507 117.725C260.247 117.579 259.942 117.506 259.591 117.506C259.244 117.506 258.939 117.579 258.675 117.725C258.415 117.87 258.196 118.071 258.019 118.326C257.845 118.577 257.715 118.866 257.629 119.194C257.542 119.518 257.499 119.862 257.499 120.227Z" fill="black" fill-opacity="0.85"/>
</svg>
