<svg width="10" height="10" viewBox="0 0 10 10" fill="none" xmlns="http://www.w3.org/2000/svg">
<path fill-rule="evenodd" clip-rule="evenodd" d="M1.42259 0.244078C1.09715 -0.0813592 0.569515 -0.0813592 0.244078 0.244078C-0.0813592 0.569515 -0.0813592 1.09715 0.244078 1.42259L7.15482 8.33333H0.833333C0.373096 8.33333 2.98023e-08 8.70643 2.98023e-08 9.16667C2.98023e-08 9.6269 0.373096 10 0.833333 10H9.16667C9.27966 10 9.3874 9.97751 9.48565 9.93677C9.58322 9.8964 9.67467 9.83671 9.75415 9.75769C9.75533 9.75651 9.75651 9.75533 9.75769 9.75415C9.83671 9.67467 9.8964 9.58322 9.93677 9.48565C9.97751 9.3874 10 9.27966 10 9.16667V0.833333C10 0.373096 9.6269 2.98023e-08 9.16667 2.98023e-08C8.70643 2.98023e-08 8.33333 0.373096 8.33333 0.833333V7.15482L1.42259 0.244078Z" fill="white"/>
</svg>
