<svg xmlns="http://www.w3.org/2000/svg" xmlns:xlink="http://www.w3.org/1999/xlink" width="82" height="82" viewBox="0 0 82 82"><defs><filter id="a" x="0" y="0" width="82" height="82" filterUnits="userSpaceOnUse"><feOffset dy="3" input="SourceAlpha"/><feGaussianBlur stdDeviation="3" result="b"/><feFlood flood-color="#b4b4b4" flood-opacity="0.471"/><feComposite operator="in" in2="b"/><feComposite in="SourceGraphic"/></filter></defs><g transform="translate(-554 -4907)"><g transform="matrix(1, 0, 0, 1, 554, 4907)" filter="url(#a)"><g transform="translate(9 6)" fill="#27d3c5" stroke="#e4e4e6" stroke-width="1"><rect width="64" height="64" rx="8" stroke="none"/><rect x="0.5" y="0.5" width="63" height="63" rx="7.5" fill="none"/></g></g><g transform="translate(568.5 4918.5)"><rect width="53" height="53" rx="8" transform="translate(0.5 0.5)" fill="none"/><g transform="translate(4.5 4.5)"><rect width="45" height="45" fill="none"/><path d="M29.5,21.167a2.778,2.778,0,0,1-2.778,2.778H10.056L4.5,29.5V7.278A2.778,2.778,0,0,1,7.278,4.5H26.722A2.778,2.778,0,0,1,29.5,7.278Z" transform="translate(5.5 5.5)" fill="#fff"/></g></g></g></svg>