<svg width="115" height="22" viewBox="0 0 115 22" fill="none" xmlns="http://www.w3.org/2000/svg">
<path d="M15.1437 5.25H13.8955C13.7205 5.25 13.5544 5.33036 13.4473 5.46786L6.08478 14.7946L2.55442 10.3214C2.50101 10.2536 2.43294 10.1988 2.35531 10.1611C2.27768 10.1233 2.19252 10.1037 2.1062 10.1036H0.85799C0.738347 10.1036 0.672275 10.2411 0.74549 10.3339L5.63656 16.5304C5.86513 16.8196 6.30442 16.8196 6.53478 16.5304L15.2562 5.47857C15.3294 5.3875 15.2633 5.25 15.1437 5.25Z" fill="#237804"/>
<path d="M28.5107 11.0439V14.6875C28.3877 14.8698 28.1917 15.0749 27.9229 15.3027C27.654 15.526 27.2826 15.722 26.8086 15.8906C26.3392 16.0547 25.7331 16.1367 24.9902 16.1367C24.3841 16.1367 23.8258 16.0319 23.3154 15.8223C22.8096 15.6081 22.3698 15.2982 21.9961 14.8926C21.627 14.4824 21.3398 13.9857 21.1348 13.4023C20.9342 12.8145 20.834 12.1491 20.834 11.4062V10.6338C20.834 9.89095 20.9206 9.22786 21.0938 8.64453C21.2715 8.0612 21.5312 7.56673 21.873 7.16113C22.2148 6.75098 22.6341 6.44108 23.1309 6.23145C23.6276 6.01725 24.1973 5.91016 24.8398 5.91016C25.6009 5.91016 26.2367 6.04232 26.7471 6.30664C27.262 6.56641 27.6631 6.92643 27.9502 7.38672C28.2419 7.84701 28.4287 8.37109 28.5107 8.95898H27.1914C27.1322 8.59896 27.0137 8.27083 26.8359 7.97461C26.6628 7.67839 26.4144 7.44141 26.0908 7.26367C25.7673 7.08138 25.3503 6.99023 24.8398 6.99023C24.3796 6.99023 23.9808 7.07454 23.6436 7.24316C23.3063 7.41178 23.0283 7.65332 22.8096 7.96777C22.5908 8.28223 22.4268 8.66276 22.3174 9.10938C22.2126 9.55599 22.1602 10.0596 22.1602 10.6201V11.4062C22.1602 11.9805 22.2262 12.4932 22.3584 12.9443C22.4951 13.3955 22.6888 13.7806 22.9395 14.0996C23.1901 14.4141 23.4886 14.6533 23.835 14.8174C24.1859 14.9814 24.5732 15.0635 24.9971 15.0635C25.4665 15.0635 25.847 15.0247 26.1387 14.9473C26.4303 14.8652 26.6582 14.7695 26.8223 14.6602C26.9863 14.5462 27.1117 14.4391 27.1982 14.3389V12.1104H24.8945V11.0439H28.5107ZM37.4316 8.00879H38.4023C38.4023 8.50553 38.3363 8.92253 38.2041 9.25977C38.0765 9.59701 37.8509 9.84993 37.5273 10.0186C37.2038 10.1872 36.748 10.2715 36.1602 10.2715V9.49219C36.5703 9.49219 36.8643 9.44206 37.042 9.3418C37.2197 9.23698 37.3291 9.0752 37.3701 8.85645C37.4111 8.6377 37.4316 8.35514 37.4316 8.00879ZM35.0322 14.291V8.60352H36.3037V16H35.0938L35.0322 14.291ZM35.2715 12.7324L35.7979 12.7188C35.7979 13.2109 35.7454 13.6667 35.6406 14.0859C35.5404 14.5007 35.3763 14.8607 35.1484 15.166C34.9206 15.4714 34.6221 15.7106 34.2529 15.8838C33.8838 16.0524 33.4349 16.1367 32.9062 16.1367C32.5462 16.1367 32.2158 16.0843 31.915 15.9795C31.6188 15.8747 31.3636 15.7129 31.1494 15.4941C30.9352 15.2754 30.7689 14.9906 30.6504 14.6396C30.5365 14.2887 30.4795 13.8672 30.4795 13.375V8.60352H31.7441V13.3887C31.7441 13.7214 31.7806 13.9971 31.8535 14.2158C31.931 14.43 32.0335 14.6009 32.1611 14.7285C32.2933 14.8516 32.4391 14.9382 32.5986 14.9883C32.7627 15.0384 32.9313 15.0635 33.1045 15.0635C33.6423 15.0635 34.0684 14.9609 34.3828 14.7559C34.6973 14.5462 34.9229 14.266 35.0596 13.915C35.2008 13.5596 35.2715 13.1654 35.2715 12.7324ZM33.9863 7.54395H33.0771L33.0703 6.50488C33.3027 6.49121 33.4919 6.46842 33.6377 6.43652C33.7835 6.40007 33.8906 6.34766 33.959 6.2793C34.0273 6.20638 34.0615 6.11068 34.0615 5.99219C34.0615 5.89648 34.0319 5.81673 33.9727 5.75293C33.9134 5.68457 33.8314 5.62988 33.7266 5.58887C33.6217 5.54329 33.501 5.51139 33.3643 5.49316C33.2275 5.47493 33.0817 5.46582 32.9268 5.46582L32.9746 4.74121C33.3118 4.74121 33.6081 4.77083 33.8633 4.83008C34.123 4.88932 34.3395 4.97591 34.5127 5.08984C34.6904 5.20378 34.8226 5.34049 34.9092 5.5C35.0003 5.65495 35.0459 5.82812 35.0459 6.01953C35.0459 6.36589 34.9365 6.61882 34.7178 6.77832C34.499 6.93327 34.2575 7.02897 33.9932 7.06543L33.9863 7.54395ZM40.5488 8.60352V16H39.2773V8.60352H40.5488ZM39.1816 6.6416C39.1816 6.43652 39.2432 6.26335 39.3662 6.12207C39.4938 5.98079 39.6807 5.91016 39.9268 5.91016C40.1683 5.91016 40.3529 5.98079 40.4805 6.12207C40.6126 6.26335 40.6787 6.43652 40.6787 6.6416C40.6787 6.83757 40.6126 7.00618 40.4805 7.14746C40.3529 7.28418 40.1683 7.35254 39.9268 7.35254C39.6807 7.35254 39.4938 7.28418 39.3662 7.14746C39.2432 7.00618 39.1816 6.83757 39.1816 6.6416ZM49.1484 8.60352V9.57422H45.1494V8.60352H49.1484ZM46.5029 6.80566H47.7676V14.168C47.7676 14.4186 47.8063 14.6077 47.8838 14.7354C47.9613 14.863 48.0615 14.9473 48.1846 14.9883C48.3076 15.0293 48.4398 15.0498 48.5811 15.0498C48.6859 15.0498 48.7952 15.0407 48.9092 15.0225C49.0277 14.9997 49.1165 14.9814 49.1758 14.9678L49.1826 16C49.0824 16.0319 48.9502 16.0615 48.7861 16.0889C48.6266 16.1208 48.4329 16.1367 48.2051 16.1367C47.8952 16.1367 47.6104 16.0752 47.3506 15.9521C47.0908 15.8291 46.8835 15.624 46.7285 15.3369C46.5781 15.0452 46.5029 14.6533 46.5029 14.1611V6.80566ZM51.8965 5.5V16H50.6318V5.5H51.8965ZM51.5957 12.0215L51.0693 12.001C51.0739 11.4951 51.1491 11.028 51.2949 10.5996C51.4408 10.1667 51.6458 9.79069 51.9102 9.47168C52.1745 9.15267 52.4889 8.90658 52.8535 8.7334C53.2227 8.55566 53.6305 8.4668 54.0771 8.4668C54.4417 8.4668 54.7699 8.51693 55.0615 8.61719C55.3532 8.71289 55.6016 8.86784 55.8066 9.08203C56.0163 9.29622 56.1758 9.57422 56.2852 9.91602C56.3945 10.2533 56.4492 10.6657 56.4492 11.1533V16H55.1777V11.1396C55.1777 10.7523 55.1208 10.4424 55.0068 10.21C54.8929 9.97298 54.7266 9.80208 54.5078 9.69727C54.2891 9.58789 54.0202 9.5332 53.7012 9.5332C53.3867 9.5332 53.0996 9.59928 52.8398 9.73145C52.5846 9.86361 52.3636 10.0459 52.1768 10.2783C51.9945 10.5107 51.8509 10.7773 51.7461 11.0781C51.6458 11.3743 51.5957 11.6888 51.5957 12.0215ZM62.7041 14.7354V10.9277C62.7041 10.6361 62.6449 10.3831 62.5264 10.1689C62.4124 9.9502 62.2393 9.78158 62.0068 9.66309C61.7744 9.5446 61.4873 9.48535 61.1455 9.48535C60.8265 9.48535 60.5462 9.54004 60.3047 9.64941C60.0677 9.75879 59.8809 9.90234 59.7441 10.0801C59.612 10.2578 59.5459 10.4492 59.5459 10.6543H58.2812C58.2812 10.39 58.3496 10.1279 58.4863 9.86816C58.623 9.6084 58.819 9.3737 59.0742 9.16406C59.334 8.94987 59.6439 8.78125 60.0039 8.6582C60.3685 8.5306 60.7741 8.4668 61.2207 8.4668C61.7585 8.4668 62.2324 8.55794 62.6426 8.74023C63.0573 8.92253 63.3809 9.19824 63.6133 9.56738C63.8503 9.93197 63.9688 10.39 63.9688 10.9414V14.3867C63.9688 14.6328 63.9893 14.8949 64.0303 15.1729C64.0758 15.4508 64.1419 15.6901 64.2285 15.8906V16H62.9092C62.8454 15.8542 62.7952 15.6605 62.7588 15.4189C62.7223 15.1729 62.7041 14.945 62.7041 14.7354ZM62.9229 11.5156L62.9365 12.4043H61.6582C61.2982 12.4043 60.9769 12.4339 60.6943 12.4932C60.4118 12.5479 60.1748 12.6322 59.9834 12.7461C59.792 12.86 59.6462 13.0036 59.5459 13.1768C59.4456 13.3454 59.3955 13.5436 59.3955 13.7715C59.3955 14.0039 59.4479 14.2158 59.5527 14.4072C59.6576 14.5986 59.8148 14.7513 60.0244 14.8652C60.2386 14.9746 60.5007 15.0293 60.8105 15.0293C61.1979 15.0293 61.5397 14.9473 61.8359 14.7832C62.1322 14.6191 62.3669 14.4186 62.54 14.1816C62.7178 13.9447 62.8135 13.7145 62.8271 13.4912L63.3672 14.0996C63.3353 14.291 63.2487 14.5029 63.1074 14.7354C62.9661 14.9678 62.777 15.1911 62.54 15.4053C62.3076 15.6149 62.0296 15.7904 61.7061 15.9316C61.387 16.0684 61.027 16.1367 60.626 16.1367C60.1247 16.1367 59.6849 16.0387 59.3066 15.8428C58.9329 15.6468 58.6413 15.3848 58.4316 15.0566C58.2266 14.724 58.124 14.3525 58.124 13.9424C58.124 13.5459 58.2015 13.1973 58.3564 12.8965C58.5114 12.5911 58.7347 12.3382 59.0264 12.1377C59.318 11.9326 59.6689 11.7777 60.0791 11.6729C60.4893 11.568 60.9473 11.5156 61.4531 11.5156H62.9229ZM60.7559 5.5L62.0752 7.50977H60.9883L59.2246 5.5H60.7559ZM67.2227 10.1826V16H65.958V8.60352H67.1543L67.2227 10.1826ZM66.9219 12.0215L66.3955 12.001C66.4001 11.4951 66.4753 11.028 66.6211 10.5996C66.7669 10.1667 66.972 9.79069 67.2363 9.47168C67.5007 9.15267 67.8151 8.90658 68.1797 8.7334C68.5488 8.55566 68.9567 8.4668 69.4033 8.4668C69.7679 8.4668 70.096 8.51693 70.3877 8.61719C70.6794 8.71289 70.9277 8.86784 71.1328 9.08203C71.3424 9.29622 71.502 9.57422 71.6113 9.91602C71.7207 10.2533 71.7754 10.6657 71.7754 11.1533V16H70.5039V11.1396C70.5039 10.7523 70.4469 10.4424 70.333 10.21C70.2191 9.97298 70.0527 9.80208 69.834 9.69727C69.6152 9.58789 69.3464 9.5332 69.0273 9.5332C68.7129 9.5332 68.4258 9.59928 68.166 9.73145C67.9108 9.86361 67.6898 10.0459 67.5029 10.2783C67.3206 10.5107 67.1771 10.7773 67.0723 11.0781C66.972 11.3743 66.9219 11.6888 66.9219 12.0215ZM74.9609 5.5V16H73.6963V5.5H74.9609ZM74.6602 12.0215L74.1338 12.001C74.1383 11.4951 74.2135 11.028 74.3594 10.5996C74.5052 10.1667 74.7103 9.79069 74.9746 9.47168C75.2389 9.15267 75.5534 8.90658 75.918 8.7334C76.2871 8.55566 76.695 8.4668 77.1416 8.4668C77.5062 8.4668 77.8343 8.51693 78.126 8.61719C78.4176 8.71289 78.666 8.86784 78.8711 9.08203C79.0807 9.29622 79.2402 9.57422 79.3496 9.91602C79.459 10.2533 79.5137 10.6657 79.5137 11.1533V16H78.2422V11.1396C78.2422 10.7523 78.1852 10.4424 78.0713 10.21C77.9574 9.97298 77.791 9.80208 77.5723 9.69727C77.3535 9.58789 77.0846 9.5332 76.7656 9.5332C76.4512 9.5332 76.1641 9.59928 75.9043 9.73145C75.6491 9.86361 75.4281 10.0459 75.2412 10.2783C75.0589 10.5107 74.9154 10.7773 74.8105 11.0781C74.7103 11.3743 74.6602 11.6888 74.6602 12.0215ZM87.8398 15.0977C88.1406 15.0977 88.4186 15.0361 88.6738 14.9131C88.929 14.79 89.1387 14.6214 89.3027 14.4072C89.4668 14.1885 89.5602 13.9401 89.583 13.6621H90.7861C90.7633 14.0996 90.6152 14.5075 90.3418 14.8857C90.0729 15.2594 89.7197 15.5625 89.2822 15.7949C88.8447 16.0228 88.3639 16.1367 87.8398 16.1367C87.2839 16.1367 86.7985 16.0387 86.3838 15.8428C85.9736 15.6468 85.6318 15.3779 85.3584 15.0361C85.0895 14.6943 84.8867 14.3024 84.75 13.8604C84.6178 13.4137 84.5518 12.9421 84.5518 12.4453V12.1582C84.5518 11.6615 84.6178 11.1921 84.75 10.75C84.8867 10.3034 85.0895 9.90918 85.3584 9.56738C85.6318 9.22559 85.9736 8.95671 86.3838 8.76074C86.7985 8.56478 87.2839 8.4668 87.8398 8.4668C88.4186 8.4668 88.9245 8.58529 89.3574 8.82227C89.7904 9.05469 90.1299 9.3737 90.376 9.7793C90.6266 10.1803 90.7633 10.6361 90.7861 11.1465H89.583C89.5602 10.8411 89.4736 10.5654 89.3232 10.3193C89.1774 10.0732 88.9769 9.87728 88.7217 9.73145C88.471 9.58105 88.1771 9.50586 87.8398 9.50586C87.4525 9.50586 87.1266 9.58333 86.8623 9.73828C86.6025 9.88867 86.3952 10.0938 86.2402 10.3535C86.0898 10.6087 85.9805 10.8936 85.9121 11.208C85.8483 11.5179 85.8164 11.8346 85.8164 12.1582V12.4453C85.8164 12.7689 85.8483 13.0879 85.9121 13.4023C85.9759 13.7168 86.083 14.0016 86.2334 14.2568C86.3883 14.512 86.5957 14.7171 86.8555 14.8721C87.1198 15.0225 87.4479 15.0977 87.8398 15.0977ZM91.873 12.3838V12.2266C91.873 11.6934 91.9505 11.1989 92.1055 10.7432C92.2604 10.2829 92.4837 9.88411 92.7754 9.54688C93.0671 9.20508 93.4202 8.94076 93.835 8.75391C94.2497 8.5625 94.7145 8.4668 95.2295 8.4668C95.749 8.4668 96.2161 8.5625 96.6309 8.75391C97.0501 8.94076 97.4056 9.20508 97.6973 9.54688C97.9935 9.88411 98.2191 10.2829 98.374 10.7432C98.529 11.1989 98.6064 11.6934 98.6064 12.2266V12.3838C98.6064 12.917 98.529 13.4115 98.374 13.8672C98.2191 14.3229 97.9935 14.7217 97.6973 15.0635C97.4056 15.4007 97.0524 15.665 96.6377 15.8564C96.2275 16.0433 95.7627 16.1367 95.2432 16.1367C94.7236 16.1367 94.2565 16.0433 93.8418 15.8564C93.4271 15.665 93.0716 15.4007 92.7754 15.0635C92.4837 14.7217 92.2604 14.3229 92.1055 13.8672C91.9505 13.4115 91.873 12.917 91.873 12.3838ZM93.1377 12.2266V12.3838C93.1377 12.7529 93.181 13.1016 93.2676 13.4297C93.3542 13.7533 93.484 14.0404 93.6572 14.291C93.835 14.5417 94.056 14.7399 94.3203 14.8857C94.5846 15.027 94.8923 15.0977 95.2432 15.0977C95.5895 15.0977 95.8926 15.027 96.1523 14.8857C96.4167 14.7399 96.6354 14.5417 96.8086 14.291C96.9818 14.0404 97.1117 13.7533 97.1982 13.4297C97.2894 13.1016 97.335 12.7529 97.335 12.3838V12.2266C97.335 11.862 97.2894 11.5179 97.1982 11.1943C97.1117 10.8662 96.9795 10.5768 96.8018 10.3262C96.6286 10.071 96.4098 9.87044 96.1455 9.72461C95.8857 9.57878 95.5804 9.50586 95.2295 9.50586C94.8831 9.50586 94.5778 9.57878 94.3135 9.72461C94.0537 9.87044 93.835 10.071 93.6572 10.3262C93.484 10.5768 93.3542 10.8662 93.2676 11.1943C93.181 11.5179 93.1377 11.862 93.1377 12.2266ZM95.5576 5.5L97.2529 7.36621V7.43457H96.2002L95.1748 6.2793L94.1562 7.43457H93.1172V7.35938L94.792 5.5H95.5576ZM101.457 10.1826V16H100.192V8.60352H101.389L101.457 10.1826ZM101.156 12.0215L100.63 12.001C100.634 11.4951 100.71 11.028 100.855 10.5996C101.001 10.1667 101.206 9.79069 101.471 9.47168C101.735 9.15267 102.049 8.90658 102.414 8.7334C102.783 8.55566 103.191 8.4668 103.638 8.4668C104.002 8.4668 104.33 8.51693 104.622 8.61719C104.914 8.71289 105.162 8.86784 105.367 9.08203C105.577 9.29622 105.736 9.57422 105.846 9.91602C105.955 10.2533 106.01 10.6657 106.01 11.1533V16H104.738V11.1396C104.738 10.7523 104.681 10.4424 104.567 10.21C104.453 9.97298 104.287 9.80208 104.068 9.69727C103.85 9.58789 103.581 9.5332 103.262 9.5332C102.947 9.5332 102.66 9.59928 102.4 9.73145C102.145 9.86361 101.924 10.0459 101.737 10.2783C101.555 10.5107 101.411 10.7773 101.307 11.0781C101.206 11.3743 101.156 11.6888 101.156 12.0215ZM112.723 8.60352H113.871V15.8428C113.871 16.4945 113.739 17.0505 113.475 17.5107C113.21 17.971 112.841 18.3197 112.367 18.5566C111.898 18.7982 111.355 18.9189 110.74 18.9189C110.485 18.9189 110.184 18.8779 109.838 18.7959C109.496 18.7184 109.159 18.584 108.826 18.3926C108.498 18.2057 108.222 17.9528 107.999 17.6338L108.662 16.8818C108.972 17.2555 109.296 17.5153 109.633 17.6611C109.975 17.807 110.312 17.8799 110.645 17.8799C111.046 17.8799 111.392 17.8047 111.684 17.6543C111.975 17.5039 112.201 17.2806 112.36 16.9844C112.524 16.6927 112.606 16.3327 112.606 15.9043V10.2305L112.723 8.60352ZM107.63 12.3838V12.2402C107.63 11.6751 107.696 11.1624 107.828 10.7021C107.965 10.2373 108.159 9.83854 108.409 9.50586C108.664 9.17318 108.972 8.91797 109.332 8.74023C109.692 8.55794 110.098 8.4668 110.549 8.4668C111.014 8.4668 111.419 8.54883 111.766 8.71289C112.117 8.8724 112.413 9.1071 112.654 9.41699C112.9 9.72233 113.094 10.0915 113.235 10.5244C113.377 10.9574 113.475 11.4473 113.529 11.9941V12.623C113.479 13.1654 113.381 13.653 113.235 14.0859C113.094 14.5189 112.9 14.888 112.654 15.1934C112.413 15.4987 112.117 15.7334 111.766 15.8975C111.415 16.057 111.005 16.1367 110.535 16.1367C110.093 16.1367 109.692 16.0433 109.332 15.8564C108.977 15.6696 108.671 15.4076 108.416 15.0703C108.161 14.7331 107.965 14.3366 107.828 13.8809C107.696 13.4206 107.63 12.9215 107.63 12.3838ZM108.895 12.2402V12.3838C108.895 12.7529 108.931 13.0993 109.004 13.4229C109.081 13.7464 109.198 14.0312 109.353 14.2773C109.512 14.5234 109.715 14.7171 109.961 14.8584C110.207 14.9951 110.501 15.0635 110.843 15.0635C111.262 15.0635 111.608 14.9746 111.882 14.7969C112.155 14.6191 112.372 14.3844 112.531 14.0928C112.695 13.8011 112.823 13.4844 112.914 13.1426V11.4951C112.864 11.2445 112.786 11.0029 112.682 10.7705C112.581 10.5335 112.449 10.3239 112.285 10.1416C112.126 9.95475 111.927 9.80664 111.69 9.69727C111.453 9.58789 111.175 9.5332 110.856 9.5332C110.51 9.5332 110.212 9.60612 109.961 9.75195C109.715 9.89323 109.512 10.0892 109.353 10.3398C109.198 10.5859 109.081 10.873 109.004 11.2012C108.931 11.5247 108.895 11.8711 108.895 12.2402Z" fill="#237804"/>
</svg>
