<?xml version="1.0" encoding="utf-8"?>
<!-- Generator: Adobe Illustrator 24.2.0, SVG Export Plug-In . SVG Version: 6.00 Build 0)  -->
<svg version="1.1" id="Layer_1" xmlns="http://www.w3.org/2000/svg" xmlns:xlink="http://www.w3.org/1999/xlink" x="0px" y="0px"
	 viewBox="0 0 70 59" style="enable-background:new 0 0 195 59;" xml:space="preserve">
<style type="text/css">
	.st0{fill:#009DDA;}
	.st1{fill-rule:evenodd;clip-rule:evenodd;fill:#005AA9;}
	.st2{fill-rule:evenodd;clip-rule:evenodd;fill:#EC1C24;}
	.st3{fill:#EC1C24;}
	.st4{fill:#005AA9;}
	.st5{fill:none;stroke:#057EAE;stroke-miterlimit:10;}
</style>
<g>
	<g>
		<path class="st4" d="M38.63,20.98l-4.65,4.65l-0.23,0.23l-1.48,1.48l-1.1,1.1l-1.48,1.48l-0.23,0.23l-0.64,0.64l-0.23,0.23h0
			l-2.18,2.17v0l-0.23,0.23c-0.65,0.65-1.37,1.19-2.14,1.61c-0.39,0.21-0.78,0.4-1.19,0.55c-0.91,0.35-1.86,0.55-2.81,0.61
			c-0.59,0.04-1.18,0.02-1.77-0.05c-1.26-0.15-2.5-0.55-3.63-1.21c-0.48-0.28-0.98-0.57-1.39-0.98c0,0,0,0-0.01,0
			c-0.09-0.09-0.18-0.18-0.27-0.27l-8.46-8.46l-0.18-0.18c-0.15-0.16-0.28-0.34-0.39-0.53C3.66,24.04,3.5,23.49,3.5,22.9
			c0-0.09,0-0.19,0.01-0.28c0.01-0.14,0.03-0.27,0.06-0.4c0.01-0.05,0.02-0.1,0.04-0.15c0.01-0.02,0.01-0.04,0.02-0.06
			c0.12-0.4,0.32-0.77,0.59-1.11c0.07-0.09,0.15-0.17,0.23-0.26l0.15-0.15l9.01-9.02c0,0,0,0,0,0l5.46-5.46
			c1.22-1.22,3.16-1.27,4.44-0.16L38.63,20.98z"/>
		<path class="st5" d="M19.57,28.82"/>
		<path class="st5" d="M30.63,40.02"/>
		<path class="st3" d="M22.17,41.28c-0.73,0-1.44-0.16-2.13-0.48l-1.73-1.73l-0.42-0.42l-0.07-0.08l-0.81-0.81l-4.04-4.08
			c0.09,0.09,0.18,0.18,0.27,0.27c0.41,0.41,0.91,0.7,1.4,0.98c1.13,0.66,2.37,1.06,3.63,1.21c0.58,0.07,1.18,0.09,1.77,0.05
			c0.96-0.06,1.91-0.26,2.81-0.61c0.41-0.16,0.8-0.34,1.19-0.55c0.77-0.42,1.49-0.96,2.14-1.61l0.23-0.23v0l2.18-2.17h0l0.23-0.23
			l0.64-0.64l0.23-0.23l1.48-1.48l1.1-1.1l1.48-1.48l0.23-0.23l9.36-9.36l3.86-4.18c0.01-0.01,0.02-0.02,0.02-0.02l0.21-0.2
			c1.18-1.18,3.09-1.18,4.27,0l2.11,2.11h0l0.07,0.07c-0.94-0.05-1.88,0.29-2.59,0.98l-7.15,7.04l-0.07,0.09L31.63,34.4l-0.02-0.02
			l-4.59,4.5L27,38.92c-0.01,0.02-0.11,0.13-0.28,0.29c-0.36,0.35-1.12,1.02-2.13,1.49c-0.46,0.22-0.92,0.37-1.38,0.47
			c-0.27,0.05-0.55,0.09-0.83,0.1H22.17z"/>
		<path class="st3" d="M65.27,29.69l-0.23,0.23L54.9,40.22L44.25,51.03c-0.34,0.34-0.69,0.65-1.07,0.92
			c-0.01,0.01-0.03,0.02-0.04,0.04c-0.05,0.04-0.1,0.08-0.16,0.11c-0.01,0.01-0.01,0.01-0.02,0.02c-1.61,1.15-3.58,1.82-5.7,1.82
			c-2.62,0-5-1.03-6.77-2.7c0,0,0,0-0.01-0.01c-0.08-0.07-0.16-0.14-0.24-0.21l-1.83-1.83l-5.15-5.15l-1.72-1.72l-0.24-0.24
			c0.28,0.05,0.56,0.07,0.85,0.07h0.01l0.23,0c0.33-0.01,0.66-0.05,0.98-0.12c0.53-0.11,1.06-0.29,1.58-0.54
			c1.12-0.53,1.96-1.27,2.36-1.66c0.16-0.15,0.27-0.28,0.32-0.34l3.96-3.89l0.02,0.02l13.61-13.39l0.07-0.09l6.61-6.5
			c0.89-0.87,2.28-0.98,3.29-0.29l1.57,1.57c0,0,0,0,0,0l8.5,8.5c0.08,0.08,0.15,0.15,0.21,0.23
			C66.45,26.84,66.38,28.59,65.27,29.69z"/>
		<g>
			<path class="st0" d="M32.43,18.43c-0.24,0.24-0.63,0.23-0.88-0.01c-4.01-4.04-10.56-4.07-14.6-0.06
				c-4.04,4.01-4.07,10.56-0.05,14.6l3.14,3.17c0.02,0.02,0.04,0.05,0.05,0.07c-0.02,0-0.03,0-0.05,0
				c-0.57,0.04-1.15,0.02-1.72-0.04l-2.31-2.33c-4.49-4.52-4.46-11.86,0.06-16.35c4.53-4.49,11.86-4.46,16.35,0.06l0.01,0.01
				C32.68,17.8,32.67,18.19,32.43,18.43z"/>
			<path class="st0" d="M37.23,22.38l-0.87,0.87l-1.53-1.54c-0.24-0.24-0.24-0.63,0-0.87c0.24-0.24,0.63-0.24,0.87,0L37.23,22.38z"
				/>
			<path class="st0" d="M24.07,35.02c-0.01,0.01-0.02,0.01-0.03,0.02c-0.38,0.21-0.76,0.39-1.16,0.54l-4.28-4.31
				c-2.68-2.7-3.06-6.92-0.91-10.05c0.19-0.28,0.58-0.35,0.86-0.16c0.28,0.19,0.35,0.58,0.16,0.86c-1.81,2.64-1.49,6.2,0.77,8.48
				L24.07,35.02z"/>
			<path class="st0" d="M34.65,24.96l-0.02,0.02l-0.64,0.64l-0.21,0.2l-4.81-4.85c-1.79-1.8-4.39-2.43-6.81-1.65
				c-0.32,0.11-0.67-0.07-0.78-0.39c-0.11-0.32,0.07-0.67,0.4-0.78c2.86-0.93,5.95-0.18,8.06,1.95L34.65,24.96z"/>
			<path class="st0" d="M32.07,27.54l-0.87,0.87l-4.82-4.86c-1.18-1.19-3.1-1.19-4.29-0.02c-1.18,1.18-1.19,3.1-0.02,4.29l3.11,3.13
				c0.24,0.24,0.24,0.63,0,0.87c-0.24,0.24-0.63,0.24-0.87,0l-3.11-3.13c-1.65-1.67-1.64-4.37,0.02-6.03
				c1.67-1.66,4.38-1.64,6.03,0.02L32.07,27.54z"/>
			<path class="st0" d="M29.49,30.12l-0.02,0.02l-0.64,0.64l-0.21,0.21l-4.83-4.87c-0.24-0.24-0.24-0.63,0-0.87
				c0.24-0.24,0.63-0.24,0.87,0L29.49,30.12z"/>
		</g>
	</g>
</g>
</svg>
